<svg preserveAspectRatio="none" width="100%" height="100%" overflow="visible" style="display: block;" viewBox="0 0 14 14" fill="none" xmlns="http://www.w3.org/2000/svg">
<g id="IconHeart">
<path id="Vector" d="M7 2.52456C7.11287 2.44259 7.25585 2.34855 7.42694 2.25489C7.88748 2.00286 8.55896 1.75 9.39814 1.75C10.2654 1.75 11.1317 2.09866 11.7787 2.79116C12.4277 3.48578 12.8333 4.5005 12.8333 5.79688C12.8333 7.73127 11.4619 9.34774 10.1457 10.4386C9.47602 10.9937 8.79288 11.4362 8.24583 11.7411C7.97236 11.8935 7.7287 12.014 7.53381 12.0978C7.43674 12.1395 7.34691 12.1743 7.26851 12.1995C7.20481 12.22 7.10232 12.25 7 12.25C6.89768 12.25 6.79519 12.22 6.73149 12.1995C6.65309 12.1743 6.56326 12.1395 6.46619 12.0978C6.2713 12.014 6.02764 11.8935 5.75419 11.7411C5.20714 11.4362 4.52398 10.9937 3.85427 10.4386C2.53817 9.34774 1.16667 7.73127 1.16667 5.79688C1.16667 4.5005 1.57225 3.48578 2.22127 2.79116C2.8683 2.09866 3.73455 1.75 4.60185 1.75C5.44105 1.75 6.11252 2.00286 6.57306 2.25489C6.74415 2.34855 6.88713 2.44259 7 2.52456Z" fill="var(--fill-0, #58524E)"/>
</g>
</svg>
