<svg preserveAspectRatio="none" width="100%" height="100%" overflow="visible" style="display: block;" viewBox="0 0 16 16" fill="none" xmlns="http://www.w3.org/2000/svg">
<g id="IconCmd">
<path id="Vector" d="M6.16667 6.16667V4.33333C6.16667 3.32081 5.34585 2.5 4.33333 2.5C3.32081 2.5 2.5 3.32081 2.5 4.33333C2.5 5.34585 3.32081 6.16667 4.33333 6.16667H6.16667ZM6.16667 6.16667H9.83333M6.16667 6.16667V9.83333M9.83333 6.16667V4.33333C9.83333 3.32081 10.6541 2.5 11.6667 2.5C12.6792 2.5 13.5 3.32081 13.5 4.33333C13.5 5.34585 12.6792 6.16667 11.6667 6.16667H9.83333ZM9.83333 6.16667V9.83333M6.16667 9.83333H9.83333M6.16667 9.83333V11.6667C6.16667 12.6792 5.34585 13.5 4.33333 13.5C3.32081 13.5 2.5 12.6792 2.5 11.6667C2.5 10.6541 3.32081 9.83333 4.33333 9.83333H6.16667ZM9.83333 9.83333V11.6667C9.83333 12.6792 10.6541 13.5 11.6667 13.5C12.6792 13.5 13.5 12.6792 13.5 11.6667C13.5 10.6541 12.6792 9.83333 11.6667 9.83333H9.83333Z" stroke="var(--stroke-0, #78716C)" stroke-linecap="square"/>
</g>
</svg>
