<svg preserveAspectRatio="none" width="100%" height="100%" overflow="visible" style="display: block;" viewBox="0 0 16 16" fill="none" xmlns="http://www.w3.org/2000/svg">
<g id="paperclip-1, attachment">
<path id="vector" d="M9.33333 1.33333C11.1743 1.33333 12.6667 2.82572 12.6667 4.66667V10.1667C12.6667 12.6519 10.6519 14.6667 8.16667 14.6667H7.83333C5.34805 14.6667 3.33333 12.6519 3.33333 10.1667V7.16667C3.33333 6.89052 3.55719 6.66667 3.83333 6.66667C4.10948 6.66667 4.33333 6.89052 4.33333 7.16667V10.1667C4.33333 12.0997 5.90034 13.6667 7.83333 13.6667H8.16667C10.0997 13.6667 11.6667 12.0997 11.6667 10.1667V4.66667C11.6667 3.378 10.622 2.33333 9.33333 2.33333C8.04467 2.33333 7 3.378 7 4.66667V9.91667C7 10.4229 7.41041 10.8333 7.91667 10.8333C8.42293 10.8333 8.83333 10.4229 8.83333 9.91667V5.16667C8.83333 4.89052 9.05719 4.66667 9.33333 4.66667C9.60948 4.66667 9.83333 4.89052 9.83333 5.16667V9.91667C9.83333 10.9752 8.97521 11.8333 7.91667 11.8333C6.85812 11.8333 6 10.9752 6 9.91667V4.66667C6 2.82572 7.49238 1.33333 9.33333 1.33333Z" fill="var(--fill-0, #58524E)"/>
</g>
</svg>
