<svg preserveAspectRatio="none" width="100%" height="100%" overflow="visible" style="display: block;" viewBox="0 0 16 16" fill="none" xmlns="http://www.w3.org/2000/svg">
<g id="IconEditSmall1">
<path id="Vector" d="M8.5 7.50007V5.50006L12.0286 1.97147C12.2889 1.71112 12.7111 1.71112 12.9714 1.97147L14.0286 3.02866C14.2889 3.28901 14.2889 3.71112 14.0286 3.97147L10.5 7.50007H8.5Z" stroke="var(--stroke-0, #58524E)" stroke-linecap="round" stroke-linejoin="round"/>
<path id="Vector_2" d="M7.5 2.5H3.56667C3.1933 2.5 3.00661 2.5 2.86401 2.57266C2.73857 2.63658 2.63658 2.73857 2.57266 2.86401C2.5 3.00661 2.5 3.1933 2.5 3.56667V12.4333C2.5 12.8067 2.5 12.9934 2.57266 13.136C2.63658 13.2615 2.73857 13.3634 2.86401 13.4273C3.00661 13.5 3.1933 13.5 3.56667 13.5H12.4333C12.8067 13.5 12.9934 13.5 13.136 13.4273C13.2615 13.3634 13.3634 13.2615 13.4273 13.136C13.5 12.9934 13.5 12.8067 13.5 12.4333V8.5" stroke="var(--stroke-0, #58524E)" stroke-linecap="round" stroke-linejoin="round"/>
</g>
</svg>
