<svg preserveAspectRatio="none" width="100%" height="100%" overflow="visible" style="display: block;" viewBox="0 0 16 16" fill="none" xmlns="http://www.w3.org/2000/svg">
<g id="IconGroup3">
<path id="Vector" d="M7.5 4.66667C7.5 5.86329 6.52995 6.83333 5.33333 6.83333C4.13671 6.83333 3.16667 5.86329 3.16667 4.66667C3.16667 3.47005 4.13671 2.5 5.33333 2.5C6.52995 2.5 7.5 3.47005 7.5 4.66667Z" stroke="var(--stroke-0, #58524E)" stroke-linecap="round" stroke-linejoin="round"/>
<path id="Vector_2" d="M13.1667 5C13.1667 6.01252 12.3459 6.83333 11.3333 6.83333C10.3208 6.83333 9.5 6.01252 9.5 5C9.5 3.98748 10.3208 3.16667 11.3333 3.16667C12.3459 3.16667 13.1667 3.98748 13.1667 5Z" stroke="var(--stroke-0, #58524E)" stroke-linecap="round" stroke-linejoin="round"/>
<path id="Vector_3" d="M5.33313 8.5C3.01124 8.5 1.62547 10.3331 1.24686 12.7872C1.1878 13.17 1.49631 13.5 1.88365 13.5H8.7826C9.16993 13.5 9.47847 13.17 9.4194 12.7872C9.0408 10.3331 7.655 8.5 5.33313 8.5Z" stroke="var(--stroke-0, #58524E)" stroke-linecap="round" stroke-linejoin="round"/>
<path id="Vector_4" d="M11.8344 12.8333H14.2831C14.6707 12.8333 14.9799 12.5027 14.9147 12.1205C14.5605 10.0416 13.3471 8.5 11.3344 8.5C11.037 8.5 10.7571 8.53367 10.4948 8.59773" stroke="var(--stroke-0, #58524E)" stroke-linecap="round" stroke-linejoin="round"/>
</g>
</svg>
