<svg preserveAspectRatio="none" width="100%" height="100%" overflow="visible" style="display: block;" viewBox="0 0 16 16" fill="none" xmlns="http://www.w3.org/2000/svg">
<g id="IconHashtag">
<path id="Vector" fill-rule="evenodd" clip-rule="evenodd" d="M5.8935 2.00368C6.16763 2.03691 6.36293 2.28608 6.3297 2.56021L6.07437 4.66672H10.7337L11.0036 2.43988C11.0369 2.16574 11.286 1.97045 11.5601 2.00368C11.8343 2.03691 12.0296 2.28608 11.9964 2.56021L11.7411 4.66672H13.5C13.7761 4.66672 14 4.89057 14 5.16672C14 5.44286 13.7761 5.66672 13.5 5.66672H11.6198L11.0541 10.3334H13.5C13.7761 10.3334 14 10.5573 14 10.8334C14 11.1095 13.7761 11.3334 13.5 11.3334H10.9329L10.6631 13.5602C10.6298 13.8343 10.3807 14.0297 10.1065 13.9964C9.83233 13.9632 9.63707 13.714 9.67027 13.4399L9.9256 11.3334H5.26629L4.99637 13.5602C4.96314 13.8343 4.71397 14.0297 4.43983 13.9964C4.1657 13.9632 3.97041 13.714 4.00363 13.4399L4.25897 11.3334H2.5C2.22386 11.3334 2 11.1095 2 10.8334C2 10.5573 2.22386 10.3334 2.5 10.3334H4.38018L4.94583 5.66672H2.5C2.22386 5.66672 2 5.44286 2 5.16672C2 4.89057 2.22386 4.66672 2.5 4.66672H5.06705L5.33697 2.43988C5.37019 2.16574 5.61936 1.97045 5.8935 2.00368ZM5.95315 5.66672L5.3875 10.3334H10.0469L10.6125 5.66672H5.95315Z" fill="var(--fill-0, #58524E)"/>
</g>
</svg>
