<svg preserveAspectRatio="none" width="100%" height="100%" overflow="visible" style="display: block;" viewBox="0 0 14 14" fill="none" xmlns="http://www.w3.org/2000/svg">
<g id="IconEmojiSmile">
<path id="Vector" fill-rule="evenodd" clip-rule="evenodd" d="M7 1.16667C10.2216 1.16667 12.8333 3.77834 12.8333 7C12.8333 10.2216 10.2216 12.8333 7 12.8333C3.77834 12.8333 1.16667 10.2216 1.16667 7C1.16667 3.77834 3.77834 1.16667 7 1.16667ZM9.02743 8.25551C8.93416 8.27266 8.85097 8.32557 8.79387 8.40023C8.75029 8.45618 8.70555 8.50879 8.65772 8.55972C8.23083 9.01699 7.61897 9.26205 7.00227 9.26042C6.38546 9.26129 5.77311 9.01536 5.34456 8.55861C5.29661 8.5078 5.25158 8.45547 5.20784 8.39965C5.15062 8.32527 5.06747 8.27248 4.97428 8.25551C4.88099 8.23871 4.78474 8.25878 4.70711 8.31133C4.62953 8.36401 4.57557 8.44573 4.55672 8.53866C4.5379 8.63152 4.55606 8.72795 4.60401 8.80868C4.6532 8.88983 4.70542 8.96747 4.76294 9.04336C5.27474 9.7307 6.14192 10.1407 7.00117 10.1354C7.8603 10.1421 8.72982 9.73233 9.24047 9.04283C9.29781 8.96677 9.3499 8.88936 9.39884 8.8081C9.44656 8.72719 9.46464 8.63036 9.44557 8.53749C9.42643 8.44468 9.37177 8.36325 9.29402 8.31081C9.21632 8.25848 9.12059 8.23853 9.02743 8.25551ZM5.39583 4.375C4.91258 4.375 4.52083 4.83923 4.52083 5.48356C4.52093 6.12774 4.91264 6.5625 5.39583 6.5625C5.87901 6.5625 6.27072 6.12774 6.27083 5.48356C6.27083 4.83923 5.87907 4.375 5.39583 4.375ZM8.60417 4.375C8.12093 4.375 7.72917 4.83923 7.72917 5.48356C7.72928 6.12774 8.12099 6.5625 8.60417 6.5625C9.08734 6.5625 9.47905 6.12774 9.47917 5.48356C9.47917 4.83923 9.0874 4.375 8.60417 4.375Z" fill="var(--fill-0, #58524E)"/>
</g>
</svg>
