<svg preserveAspectRatio="none" width="100%" height="100%" overflow="visible" style="display: block;" viewBox="0 0 16 16" fill="none" xmlns="http://www.w3.org/2000/svg">
<g id="Frame">
<path id="Vector" d="M5.99967 7.00008C4.52691 7.00008 3.33301 5.80618 3.33301 4.33342C3.33301 2.86065 4.52691 1.66675 5.99967 1.66675C7.47241 1.66675 8.66634 2.86065 8.66634 4.33342C8.66634 5.80618 7.47241 7.00008 5.99967 7.00008Z" stroke="var(--stroke-0, #58524E)" stroke-linecap="round"/>
<path id="Vector_2" d="M5.99883 8.66667C3.30815 8.66667 1.08285 10.6883 0.717933 13.0027C0.660586 13.3663 0.963973 13.6667 1.33216 13.6667H10.6655C11.0337 13.6667 11.3371 13.3663 11.2797 13.0027C10.9148 10.6883 8.68953 8.66667 5.99883 8.66667Z" stroke="var(--stroke-0, #58524E)" stroke-linecap="round"/>
<path id="Vector_3" d="M11.667 8.93286C13.5667 9.55493 14.9953 11.1889 15.2813 13.0026C15.3386 13.3663 15.0352 13.6666 14.667 13.6666H13.3337" stroke="var(--stroke-0, #58524E)" stroke-linecap="round"/>
<path id="Vector_4" d="M10 1.66667C11.4727 1.66667 12.6667 2.86057 12.6667 4.33333C12.6667 5.80609 11.4727 7 10 7" stroke="var(--stroke-0, #58524E)" stroke-linecap="round"/>
</g>
</svg>
