<svg preserveAspectRatio="none" width="100%" height="100%" overflow="visible" style="display: block;" viewBox="0 0 16 16" fill="none" xmlns="http://www.w3.org/2000/svg">
<g id="IconBubble3">
<path id="Subtract" d="M7.99962 1.33398C11.6816 1.33398 14.6666 4.31908 14.6666 8.00098C14.6664 11.6827 11.6814 14.667 7.99962 14.667C6.99674 14.667 6.04442 14.4454 5.19005 14.0479L1.9254 14.6592C1.76172 14.6898 1.5929 14.6363 1.47618 14.5176C1.35961 14.3988 1.30992 14.2294 1.34337 14.0664L1.99376 10.8975C1.57035 10.021 1.33268 9.03799 1.33263 8.00098C1.33263 4.3191 4.31775 1.33401 7.99962 1.33398ZM4.99962 8C4.99962 8.79556 5.31604 9.5585 5.87853 10.1211C6.44105 10.6836 7.20411 10.9999 7.99962 11C8.79527 11 9.55908 10.6837 10.1217 10.1211C10.6841 9.55851 10.9996 8.79551 10.9996 8H4.99962Z" fill="var(--fill-0, #1A1817)"/>
</g>
</svg>
