<svg preserveAspectRatio="none" width="100%" height="100%" overflow="visible" style="display: block;" viewBox="0 0 14 14" fill="none" xmlns="http://www.w3.org/2000/svg">
<g id="IconFolderOpenFront">
<path id="Vector" d="M12.6821 6.41667C13.3393 6.41696 13.8254 7.02928 13.6762 7.66937L12.9277 10.8777C12.8199 11.3396 12.4074 11.6665 11.933 11.6667H2.06764C1.59324 11.6667 1.18141 11.3396 1.07358 10.8777L0.324476 7.66937C0.175199 7.02917 0.661214 6.41684 1.31854 6.41667H12.6821Z" fill="var(--fill-0, #58524E)"/>
<path id="Vector_2" d="M5.56422 1.75C5.83004 1.75006 6.0858 1.85401 6.27632 2.03939L7.13533 2.87508C7.16258 2.9015 7.19938 2.91667 7.2373 2.91667H11.8129C12.3765 2.91679 12.8337 3.37378 12.8337 3.9375V5.54167H1.16701V2.77083C1.16701 2.20704 1.62405 1.75 2.18784 1.75H5.56422Z" fill="var(--fill-0, #58524E)"/>
</g>
</svg>
