<svg preserveAspectRatio="none" width="100%" height="100%" overflow="visible" style="display: block;" viewBox="0 0 16 16" fill="none" xmlns="http://www.w3.org/2000/svg">
<g id="IconDotGrid1x3Horizontal">
<path id="Vector" d="M7.99967 8.66732C8.36787 8.66732 8.66634 8.36885 8.66634 8.00065C8.66634 7.63245 8.36787 7.33398 7.99967 7.33398C7.63147 7.33398 7.33301 7.63245 7.33301 8.00065C7.33301 8.36885 7.63147 8.66732 7.99967 8.66732Z" fill="var(--fill-0, #58524E)"/>
<path id="Vector_2" d="M13.4997 8.66732C13.8679 8.66732 14.1663 8.36885 14.1663 8.00065C14.1663 7.63245 13.8679 7.33398 13.4997 7.33398C13.1315 7.33398 12.833 7.63245 12.833 8.00065C12.833 8.36885 13.1315 8.66732 13.4997 8.66732Z" fill="var(--fill-0, #58524E)"/>
<path id="Vector_3" d="M2.49967 8.66732C2.86786 8.66732 3.16634 8.36885 3.16634 8.00065C3.16634 7.63245 2.86786 7.33398 2.49967 7.33398C2.13149 7.33398 1.83301 7.63245 1.83301 8.00065C1.83301 8.36885 2.13149 8.66732 2.49967 8.66732Z" fill="var(--fill-0, #58524E)"/>
<path id="Vector_4" d="M7.99967 8.66732C8.36787 8.66732 8.66634 8.36885 8.66634 8.00065C8.66634 7.63245 8.36787 7.33398 7.99967 7.33398C7.63147 7.33398 7.33301 7.63245 7.33301 8.00065C7.33301 8.36885 7.63147 8.66732 7.99967 8.66732Z" stroke="var(--stroke-0, #58524E)" stroke-linecap="round" stroke-linejoin="round"/>
<path id="Vector_5" d="M13.4997 8.66732C13.8679 8.66732 14.1663 8.36885 14.1663 8.00065C14.1663 7.63245 13.8679 7.33398 13.4997 7.33398C13.1315 7.33398 12.833 7.63245 12.833 8.00065C12.833 8.36885 13.1315 8.66732 13.4997 8.66732Z" stroke="var(--stroke-0, #58524E)" stroke-linecap="round" stroke-linejoin="round"/>
<path id="Vector_6" d="M2.49967 8.66732C2.86786 8.66732 3.16634 8.36885 3.16634 8.00065C3.16634 7.63245 2.86786 7.33398 2.49967 7.33398C2.13149 7.33398 1.83301 7.63245 1.83301 8.00065C1.83301 8.36885 2.13149 8.66732 2.49967 8.66732Z" stroke="var(--stroke-0, #58524E)" stroke-linecap="round" stroke-linejoin="round"/>
</g>
</svg>
