<svg preserveAspectRatio="none" width="100%" height="100%" overflow="visible" style="display: block;" viewBox="0 0 16 16" fill="none" xmlns="http://www.w3.org/2000/svg">
<g id="IconHeadphones">
<path id="Vector" d="M2.5 9.16667V8C2.5 4.96243 4.96243 2.5 8 2.5C11.0375 2.5 13.5 4.96243 13.5 8V9.16667M2.5 9.16667V12.8333C2.5 13.2015 2.79848 13.5 3.16667 13.5H4.5C4.86819 13.5 5.16667 13.2015 5.16667 12.8333V9.83333C5.16667 9.46513 4.86819 9.16667 4.5 9.16667H2.5ZM13.5 9.16667V12.8333C13.5 13.2015 13.2015 13.5 12.8333 13.5H11.5C11.1318 13.5 10.8333 13.2015 10.8333 12.8333V9.83333C10.8333 9.46513 11.1318 9.16667 11.5 9.16667H13.5Z" stroke="var(--stroke-0, #57534E)" stroke-linecap="square" stroke-linejoin="round"/>
</g>
</svg>
