<svg preserveAspectRatio="none" width="100%" height="100%" overflow="visible" style="display: block;" viewBox="0 0 20 20" fill="none" xmlns="http://www.w3.org/2000/svg">
<g id="Avatars">
<g id="Vector">
<path d="M8.60007 11.5555V12.5268C8.60007 12.6093 8.56729 12.6884 8.50895 12.7467L5.25761 15.9981C5.19686 16.0588 5.09837 16.0588 5.03762 15.9981L4.15763 15.1181C4.09688 15.0573 4.09688 14.9589 4.15763 14.8981L7.40912 11.6466C7.46746 11.5883 7.5466 11.5555 7.62911 11.5555H8.60007Z" fill="var(--fill-0, #2563EB)"/>
<path d="M10.9334 9.22216H12.0337L9.37785 11.8778V10.7777H8.27802L10.9334 8.12234V9.22216Z" fill="var(--fill-0, #2563EB)"/>
<path d="M16.0371 4.99876C16.0978 5.05951 16.0978 5.158 16.0371 5.21875L12.9026 8.35326C12.8442 8.41161 12.7651 8.44439 12.6826 8.44439H11.7112V7.47343C11.7112 7.39092 11.744 7.31178 11.8023 7.25344L14.9371 4.11876C14.9979 4.05802 15.0964 4.05802 15.1571 4.11877L16.0371 4.99876Z" fill="var(--fill-0, #2563EB)"/>
<path d="M17.6223 9.22221H2.37785C2.29193 9.22221 2.22229 9.29186 2.22229 9.37777V10.6222C2.22229 10.7081 2.29193 10.7778 2.37785 10.7778H17.6223C17.7082 10.7778 17.7778 10.7081 17.7778 10.6222V9.37777C17.7778 9.29186 17.7082 9.22221 17.6223 9.22221Z" fill="var(--fill-0, #2563EB)"/>
<path d="M9.37785 2.37777V17.6222C9.37785 17.7081 9.44749 17.7778 9.5334 17.7778H10.7778C10.8638 17.7778 10.9334 17.7081 10.9334 17.6222V2.37777C10.9334 2.29186 10.8638 2.22221 10.7778 2.22221H9.5334C9.44749 2.22221 9.37785 2.29186 9.37785 2.37777Z" fill="var(--fill-0, #2563EB)"/>
<path d="M5.25765 4.11876L16.0371 14.8982C16.0978 14.9589 16.0978 15.0574 16.0371 15.1181L15.1571 15.9981C15.0964 16.0588 14.9979 16.0588 14.9372 15.9981L4.1577 5.21871C4.09695 5.15796 4.09695 5.05947 4.1577 4.99872L5.03766 4.11876C5.09841 4.05802 5.1969 4.05802 5.25765 4.11876Z" fill="var(--fill-0, #2563EB)"/>
</g>
</g>
</svg>
