<svg preserveAspectRatio="none" overflow="visible" style="display: block;" width="12" height="12" viewBox="0 0 12 12" fill="none" xmlns="http://www.w3.org/2000/svg">
<g id="Group">
<path id="Vector" d="M4.16667 4.16667V2.33333C4.16667 1.32081 3.34585 0.5 2.33333 0.5C1.32081 0.5 0.5 1.32081 0.5 2.33333C0.5 3.34585 1.32081 4.16667 2.33333 4.16667H4.16667ZM4.16667 4.16667H7.83333M4.16667 4.16667V7.83333M7.83333 4.16667V2.33333C7.83333 1.32081 8.6541 0.5 9.6667 0.5C10.6792 0.5 11.5 1.32081 11.5 2.33333C11.5 3.34585 10.6792 4.16667 9.6667 4.16667H7.83333ZM7.83333 4.16667V7.83333M4.16667 7.83333H7.83333M4.16667 7.83333V9.6667C4.16667 10.6792 3.34585 11.5 2.33333 11.5C1.32081 11.5 0.5 10.6792 0.5 9.6667C0.5 8.6541 1.32081 7.83333 2.33333 7.83333H4.16667ZM7.83333 7.83333V9.6667C7.83333 10.6792 8.6541 11.5 9.6667 11.5C10.6792 11.5 11.5 10.6792 11.5 9.6667C11.5 8.6541 10.6792 7.83333 9.6667 7.83333H7.83333Z" stroke="#58524E" stroke-linecap="square"/>
</g>
</svg>
